HIERARCHY
ROOT SimulationBone
{
	OFFSET 0.000000 0.000000 0.000000
	CHANNELS 6 Xposition Yposition Zposition Zrotation Yrotation Xrotation 
	JOINT Hips
	{
		OFFSET 0.000000 0.000000 0.000000
		CHANNELS 6 Xposition Yposition Zposition Zrotation Yrotation Xrotation 
		JOINT LeftUpLeg
		{
			OFFSET 0.103457 1.857818 10.548502
			CHANNELS 3 Zrotation Yrotation Xrotation
			JOINT LeftLeg
			{
				OFFSET 43.500000 -0.000011 -0.000004
				CHANNELS 3 Zrotation Yrotation Xrotation
				JOINT LeftFoot
				{
					OFFSET 42.372192 -0.000004 -0.000008
					CHANNELS 3 Zrotation Yrotation Xrotation
					JOINT LeftToe
					{
						OFFSET 17.300014 0.000006 0.000001
						CHANNELS 3 Zrotation Yrotation Xrotation
						End Site
						{
							OFFSET 0.000000 0.000000 0.000000
						}
					}
				}
			}
		}
		JOINT RightUpLeg
		{
			OFFSET 0.103457 1.857817 -10.548505
			CHANNELS 3 Zrotation Yrotation Xrotation
			JOINT RightLeg
			{
				OFFSET 43.500046 -0.000004 0.000011
				CHANNELS 3 Zrotation Yrotation Xrotation
				JOINT RightFoot
				{
					OFFSET 42.372257 0.000000 0.000015
					CHANNELS 3 Zrotation Yrotation Xrotation
					JOINT RightToe
					{
						OFFSET 17.300003 -0.000000 0.000002
						CHANNELS 3 Zrotation Yrotation Xrotation
						End Site
						{
							OFFSET 0.000000 0.000000 0.000000
						}
					}
				}
			}
		}
		JOINT Spine
		{
			OFFSET 6.901961 -2.603721 -0.000001
			CHANNELS 3 Zrotation Yrotation Xrotation
			JOINT Spine1
			{
				OFFSET 12.588108 0.000002 -0.000001
				CHANNELS 3 Zrotation Yrotation Xrotation
				JOINT Spine2
				{
					OFFSET 12.343199 -0.000020 0.000006
					CHANNELS 3 Zrotation Yrotation Xrotation
					JOINT Neck
					{
						OFFSET 25.832905 0.000017 0.000000
						CHANNELS 3 Zrotation Yrotation Xrotation
						JOINT Head
						{
							OFFSET 11.766604 -0.000006 0.000004
							CHANNELS 3 Zrotation Yrotation Xrotation
							End Site
							{
								OFFSET 0.000000 0.000000 0.000000
							}
						}
					}
					JOINT LeftShoulder
					{
						OFFSET 19.745903 -1.480350 6.000100
						CHANNELS 3 Zrotation Yrotation Xrotation
						JOINT LeftArm
						{
							OFFSET 11.284130 -0.000016 -0.000016
							CHANNELS 3 Zrotation Yrotation Xrotation
							JOINT LeftForeArm
							{
								OFFSET 33.000046 0.000004 0.000031
								CHANNELS 3 Zrotation Yrotation Xrotation
								JOINT LeftHand
								{
									OFFSET 25.199999 0.000027 0.000001
									CHANNELS 3 Zrotation Yrotation Xrotation
									End Site
									{
										OFFSET 0.000000 0.000000 0.000000
									}
								}
							}
						}
					}
					JOINT RightShoulder
					{
						OFFSET 19.746094 -1.480375 -6.000080
						CHANNELS 3 Zrotation Yrotation Xrotation
						JOINT RightArm
						{
							OFFSET 11.284131 -0.000016 -0.000017
							CHANNELS 3 Zrotation Yrotation Xrotation
							JOINT RightForeArm
							{
								OFFSET 33.000095 0.000009 0.000020
								CHANNELS 3 Zrotation Yrotation Xrotation
								JOINT RightHand
								{
									OFFSET 25.199789 0.000132 0.000423
									CHANNELS 3 Zrotation Yrotation Xrotation
									End Site
									{
										OFFSET 0.000000 0.000000 0.000000
									}
								}
							}
						}
					}
				}
			}
		}
	}
}
MOTION
Frames: 14
Frame Time: 0.033333
188.720687 0.000000 -542.091784 180.000000 -79.695442 180.000000 -7.654425 78.666786 1.893650 86.810607 -3.544039 -173.019659 167.728218 16.744904 174.158240 -49.296580 -3.375938 -5.201760 106.275093 3.566144 13.033480 21.454553 0.003090 0.000001 154.573779 10.280394 179.432034 -109.094104 -5.248107 9.490039 75.505071 -5.777386 2.519181 21.454555 -0.003104 -0.000018 10.266322 -1.828669 1.134702 10.490926 -3.752662 2.099835 10.172329 -3.739776 2.122486 0.298367 -10.424261 -7.505593 -20.823707 16.166923 -16.131228 -170.874503 -73.523223 -10.811034 10.773538 55.999246 25.650181 -95.293543 -2.994839 2.749773 -3.843487 -4.850557 30.375528 -170.649203 70.731410 10.995483 14.360299 -59.884899 -21.962396 -94.274874 2.856832 -2.737814 1.318841 -3.685278 -54.479221 
186.996076 0.000000 -538.259520 180.000000 -82.049056 180.000000 -7.552982 79.976303 1.813771 86.135524 -2.728986 -172.458312 172.753188 14.838902 177.701824 -44.143106 -3.188653 -4.199377 105.255688 3.035131 12.366676 21.454553 0.003089 0.000001 148.175025 7.824101 177.004844 -109.648100 -5.139235 9.813072 76.827655 -6.280105 1.643028 21.454560 -0.003105 -0.000011 10.149446 -1.662784 0.477780 10.278622 -3.361404 0.806169 9.959948 -3.356342 0.826476 0.216235 -9.652034 -6.707228 -20.477421 16.210209 -15.137475 -175.660513 -74.088455 -5.906992 2.762099 58.643833 19.713261 -97.400198 -2.824499 2.831568 -4.846322 -3.780714 32.586194 -168.243815 70.506322 13.474664 19.874604 -58.759387 -27.750394 -91.381845 3.746837 -2.670549 -1.626062 -1.503517 -68.540231 
185.464654 0.000000 -534.297350 180.000000 -84.325335 180.000000 -7.120042 81.846497 1.911139 84.992975 -0.585336 -171.348370 177.823756 11.087097 -177.803853 -37.208098 -3.343156 -3.340126 101.756397 2.804432 10.718329 21.454551 0.003102 -0.000002 142.739124 5.282393 176.286062 -105.753308 -4.702477 8.268648 76.257669 -5.066875 2.243518 21.454562 -0.003109 -0.000019 9.758276 -1.080755 -0.399540 9.513591 -2.125030 -0.886736 9.195291 -2.130222 -0.873868 -0.204254 -8.433152 -5.632667 -19.271502 15.445873 -13.333854 -179.464313 -75.388165 -2.030015 -1.534504 60.830382 17.655255 -100.338204 -2.449069 2.935790 -5.618135 -2.615702 33.439848 -164.339515 70.473509 17.499585 23.974907 -55.678100 -34.741706 -88.882105 4.911037 -2.640367 -5.208824 2.490517 -63.172952 
184.107806 0.000000 -530.181273 180.000000 -86.533453 180.000000 -6.474034 84.019691 2.083977 83.622873 1.677417 -170.509551 -178.698717 6.746597 -174.560224 -31.434925 -3.769654 -3.021894 92.991161 3.318143 9.372600 21.454550 0.003087 0.000001 138.899191 3.476495 176.238210 -98.102683 -3.894299 6.019983 76.638991 -3.329254 2.961816 21.454563 -0.003102 -0.000021 9.299120 -0.391266 -1.230446 8.593046 -0.690197 -2.486531 8.275245 -0.705042 -2.482318 -1.371955 -6.868431 -4.688100 -17.522162 13.920060 -11.286541 177.414655 -76.773170 1.130987 -3.379181 62.092457 18.294892 -103.317908 -2.101783 3.043265 -6.223124 -1.990124 34.449818 -160.501700 70.519203 21.454597 26.507285 -51.949094 -40.033282 -86.769740 5.485076 -2.586592 -8.822418 8.775206 -49.849415 
182.925250 0.000000 -525.874833 180.000000 -88.672147 180.000000 -5.983812 85.940460 2.247513 82.272051 4.275463 -170.416417 -176.528206 1.961603 -173.711136 -27.513926 -4.035647 -2.520914 83.855366 3.437377 7.615081 21.454553 0.003080 0.000003 136.596666 1.492495 176.689617 -87.491957 -2.630784 6.369824 76.633397 -3.749130 2.594911 21.454562 -0.003100 -0.000016 8.925310 0.380779 -1.763360 7.824590 0.879684 -3.497036 7.507100 0.858697 -3.502266 -3.479325 -5.198393 -4.079362 -15.553051 12.041244 -9.478071 175.058418 -77.896620 3.506952 -4.423596 62.276340 19.972206 -105.318614 -1.974444 3.122317 -7.034650 -2.599155 36.274441 -158.012533 70.643212 24.017213 28.046398 -48.957512 -42.624800 -84.883248 6.157232 -2.550080 -11.699821 13.354746 -43.899142 
181.921182 0.000000 -521.340534 0.000000 -89.274367 0.000000 -5.790768 87.204857 2.292539 81.032428 6.151824 -171.214286 -175.916085 -1.514487 -175.194380 -27.485026 -3.261481 -1.659041 77.275121 2.321395 3.951059 21.454553 0.003088 0.000003 136.036741 0.173097 176.861916 -75.306927 -1.596103 7.625580 78.723579 -4.618050 2.947353 21.454558 -0.003105 -0.000018 8.706192 1.001877 -1.985236 7.364534 2.127695 -3.903434 7.047005 2.104242 -3.916184 -6.072781 -3.772803 -3.791981 -13.733550 10.327499 -8.158047 173.137892 -78.731802 5.438953 -5.495851 61.770537 21.332395 -105.374096 -2.111942 3.134351 -7.899727 -4.281218 38.417198 -156.906398 70.742817 25.154422 28.241102 -47.269608 -41.894400 -82.798456 7.280632 -2.536755 -12.012693 13.002565 -44.831985 
181.092143 0.000000 -516.558097 0.000000 -87.317010 0.000000 -5.719544 87.663727 2.179004 80.280829 6.750427 -172.414376 -176.631533 -2.566101 -176.737633 -32.356611 -0.966392 -1.278186 74.394584 0.490214 -1.493474 21.454548 0.003098 -0.000001 137.552278 -0.136398 177.113103 -62.648961 -1.269768 7.382155 81.666243 -4.448240 3.199778 21.454558 -0.003102 -0.000019 8.661356 1.375223 -2.029210 7.262332 2.874685 -3.969471 6.944636 2.850813 -3.986716 -8.035526 -2.926027 -3.751277 -12.604071 9.095079 -7.440524 171.323684 -79.252850 7.267995 -6.208051 61.067308 21.968303 -103.311304 -2.472763 3.068881 -7.969530 -5.789496 40.428467 -156.520396 70.679310 25.553239 26.172317 -46.461809 -38.156421 -80.651775 8.505859 -2.528409 -8.134421 8.948396 -45.369429 
180.437964 0.000000 -511.530365 0.000000 -85.454230 0.000000 -5.738399 87.114082 2.049013 80.406521 6.892171 -173.557604 -178.047814 -1.976109 -175.918694 -40.817453 1.399399 -2.705338 72.754506 0.771061 -3.601489 21.454553 0.003093 0.000000 140.825756 -0.093995 177.783035 -52.009411 -0.912217 5.327105 84.136306 -3.161291 2.691420 21.454557 -0.003105 -0.000017 8.757213 1.662726 -1.957503 7.447614 3.447601 -3.805776 7.129658 3.424723 -3.826502 -8.081464 -2.878161 -3.935041 -12.640180 8.396270 -7.391080 170.686755 -79.368786 7.911954 -5.688678 60.402170 22.369136 -99.881784 -2.947412 2.950370 -6.689155 -6.102555 42.340838 -156.596294 70.633015 25.476083 22.202198 -45.591099 -33.021700 -79.232981 9.297089 -2.521954 -1.354275 3.690433 -44.713034 
179.938089 0.000000 -506.270789 0.000000 -83.683067 0.000000 -5.802772 85.512138 2.056907 81.635584 7.119879 -174.599663 -179.784417 -1.084305 -172.931224 -52.060498 2.005549 -4.330320 72.523379 1.884077 -3.635052 21.454553 0.003084 0.000005 145.181736 -0.589594 178.537252 -46.010603 -0.742458 4.069594 83.907802 -1.822279 4.892405 21.454560 -0.003121 -0.000018 8.981280 1.952043 -1.739950 7.895818 4.017937 -3.344764 7.577466 3.997808 -3.368954 -5.524391 -3.524268 -4.425594 -13.931381 8.061989 -7.986095 172.011416 -79.145179 6.572995 -3.693463 60.001778 22.929623 -95.924775 -3.424856 2.807919 -4.449481 -5.509665 44.059757 -157.245913 70.971095 24.800425 17.576507 -44.280195 -28.087905 -79.085121 9.527748 -2.531615 5.337634 -1.472179 -46.147777 
179.584207 0.000000 -500.792298 0.000000 -82.011261 0.000000 -5.968980 83.222366 2.257652 83.930558 7.674081 -175.745607 178.221560 -0.357805 -170.368714 -65.097836 1.542179 -5.026051 74.890217 2.667892 -2.836737 21.454557 0.003099 0.000000 149.622261 -1.818096 179.490500 -49.322022 -0.364544 3.080957 92.807142 -1.009842 8.472856 21.454558 -0.003110 -0.000019 9.389766 2.279244 -1.322579 8.723587 4.651460 -2.471521 8.404662 4.636588 -2.499585 -1.332661 -4.360558 -5.250513 -15.941759 7.820329 -8.975577 174.138487 -78.670167 4.422975 -0.700180 60.301336 23.292543 -91.492160 -3.986118 2.650085 -2.043470 -5.059817 46.230962 -158.810067 71.518405 23.180803 12.103806 -42.661502 -23.183897 -79.714871 9.553944 -2.560767 10.489038 -6.112470 -50.022147 
179.346788 0.000000 -495.139320 0.000000 -80.451639 0.000000 -6.559934 80.870567 2.461227 86.406173 9.222525 -177.074769 174.772451 -0.394704 -169.560320 -78.486052 1.770789 -5.280675 74.841265 2.552195 -3.746311 21.454557 0.003090 0.000001 152.621233 -3.925296 -178.700261 -55.691600 0.307300 2.494020 98.596595 -1.134056 6.842443 21.454557 -0.003107 -0.000018 9.971515 2.778225 -0.729045 9.912122 5.608479 -1.218501 9.592455 5.601151 -1.252438 2.214748 -5.051820 -6.094247 -17.870452 7.600786 -9.933618 176.355088 -77.767892 2.189967 2.708792 61.352639 24.343508 -86.371314 -6.269775 2.583248 -0.016380 -5.953534 50.548775 -161.941982 71.661894 19.956725 4.463302 -40.627697 -17.253997 -80.181182 9.827537 -2.600173 14.927348 -9.608597 -54.583843 
179.208376 0.000000 -489.349851 0.000000 -79.016115 0.000000 -7.247564 79.050552 2.497932 87.880859 9.647346 -179.129024 168.982773 0.758298 -171.412750 -90.234333 2.821315 -5.522612 75.120565 3.181162 -2.091685 21.454555 0.003091 -0.000005 156.242394 -4.950306 -177.271945 -59.430378 0.326218 1.530886 103.662403 -0.818334 5.435850 21.454557 -0.003119 -0.000020 10.511519 2.963573 -0.110996 11.026515 5.924036 0.061621 10.706552 5.924441 0.025723 3.838008 -5.702553 -6.581437 -19.363079 7.610992 -10.609033 179.687988 -76.348380 -1.180050 7.870749 62.472899 26.264355 -81.593153 -8.770170 2.548924 1.653113 -8.475711 55.913472 -166.774682 71.406698 14.985488 -4.507402 -38.402308 -10.822005 -80.557956 10.277929 -2.648121 19.401040 -11.064473 -60.289711 
179.156935 0.000000 -483.461321 0.000000 -77.702299 0.000000 -8.033524 78.258186 2.235863 87.713556 9.474319 178.308573 160.404834 1.891597 -173.877847 -98.099787 3.431624 -5.573561 76.063432 3.309663 -1.741099 21.454555 0.003098 0.000006 160.165450 -5.107894 -176.600470 -59.509259 0.424793 0.277600 107.422203 -0.162731 4.008565 21.454557 -0.003123 -0.000019 10.764380 2.864459 0.560241 11.564873 5.658355 1.406292 11.245181 5.666877 1.372000 4.019401 -6.420319 -6.856702 -20.183754 8.247042 -11.314279 -175.402509 -74.936239 -6.180082 15.547515 62.232825 30.338194 -79.042351 -9.765951 2.508161 3.650927 -11.566727 55.955543 -172.078201 71.492806 9.526600 -12.269110 -37.552599 -4.949702 -82.010327 10.156782 -2.703301 21.845303 -9.905080 -67.697925 
179.183507 0.000000 -477.505033 0.000000 -76.497600 0.000000 -8.498568 78.802406 1.765400 86.384436 8.321793 175.464809 150.958164 2.897400 -176.806550 -100.580191 3.314532 -5.596161 76.803442 3.428203 -1.472389 21.454543 0.003088 -0.000008 164.796195 -4.390203 -177.344988 -55.718928 0.872675 -0.773735 108.781704 0.470953 3.181472 21.454558 -0.003114 -0.000017 10.678041 2.375149 1.387238 11.412978 4.601637 3.004768 11.094240 4.619835 2.976907 3.612695 -7.168585 -7.473300 -20.040883 9.793889 -12.678076 -169.702388 -74.245276 -12.015017 23.708504 59.654565 36.575998 -79.398401 -8.856563 2.460077 6.227451 -13.399977 46.530998 -175.654775 72.328493 5.854375 -17.246217 -39.481297 -0.058989 -85.003671 8.820183 -2.741707 19.111986 -6.354377 -72.565965 
